# Blender v2.90.0 Beta OBJ File: ''
# www.blender.org
mtllib untitled.mtl
o Box002_Mesh
v -0.000538 0.038587 0.032690
v 0.000000 -0.038587 -0.068900
v 0.000000 0.031287 -0.068900
v -0.053949 0.004190 0.032690
v -0.042053 -0.022613 -0.068449
v -0.042053 0.012639 -0.068449
v -0.073191 0.014162 -0.129958
v -0.023477 0.038587 0.032690
v -0.024589 0.031287 -0.068449
v -0.024589 -0.038587 -0.068449
v -0.027102 -0.035307 0.032690
v 0.000000 -0.004987 -0.068900
v -0.042053 -0.004987 -0.068449
v -0.024589 -0.004987 -0.068449
v -0.021209 -0.030358 -0.068449
v -0.035443 -0.019840 -0.068449
v -0.035443 -0.010316 -0.068449
v -0.021172 -0.010316 -0.068449
v -0.006901 -0.010316 -0.068449
v -0.006901 -0.019118 -0.068449
v -0.035443 0.000341 -0.068449
v -0.035443 0.009866 -0.068449
v -0.021209 0.020384 -0.068449
v -0.006901 0.009143 -0.068449
v -0.006901 0.000341 -0.068449
v -0.021172 0.000341 -0.068449
v -0.021108 -0.036376 -0.093131
v -0.040538 -0.022019 -0.093131
v -0.040538 -0.005717 -0.093131
v -0.021172 -0.005717 -0.093131
v -0.001806 -0.005717 -0.093131
v -0.001806 -0.021211 -0.093131
v -0.040538 -0.004257 -0.093131
v -0.040538 0.012044 -0.093131
v -0.021108 0.026401 -0.093131
v -0.001806 0.011237 -0.093131
v -0.001806 -0.004257 -0.093131
v -0.021172 -0.004257 -0.093131
v -0.021186 -0.031729 -0.093131
v -0.036604 -0.020336 -0.093131
v -0.036604 -0.009268 -0.093131
v -0.021172 -0.009268 -0.093131
v -0.005741 -0.009268 -0.093131
v -0.005741 -0.019594 -0.093131
v -0.036604 -0.000706 -0.093131
v -0.036604 0.010362 -0.093131
v -0.021186 0.021754 -0.093131
v -0.005741 0.009620 -0.093131
v -0.005741 -0.000706 -0.093131
v -0.021172 -0.000706 -0.093131
v -0.021219 -0.029761 -0.077690
v -0.034938 -0.019624 -0.077690
v -0.034938 -0.010772 -0.077690
v -0.021172 -0.010772 -0.077690
v -0.007407 -0.010772 -0.077690
v -0.007407 -0.018910 -0.077690
v -0.034938 0.000797 -0.077690
v -0.034938 0.009650 -0.077690
v -0.021219 0.019787 -0.077690
v -0.007407 0.008935 -0.077690
v -0.007407 0.000797 -0.077690
v -0.021172 0.000797 -0.077690
v -0.042408 0.010984 0.016467
v -0.042408 -0.020958 0.016467
v -0.024589 0.031287 0.017413
v -0.024589 -0.038587 0.017413
v 0.000000 0.031287 0.019080
v 0.000000 -0.038587 0.020159
v -0.000679 -0.035307 0.032690
v 0.052163 0.004190 0.032690
v 0.042408 -0.020958 0.015565
v 0.042408 0.010984 0.015565
v 0.025316 -0.035307 0.032690
v 0.024589 -0.038587 0.016510
v 0.024589 0.031287 -0.069351
v 0.024589 0.031287 0.016510
v 0.042053 0.012639 -0.069351
v 0.021120 0.019787 -0.078593
v 0.034839 0.009650 -0.078593
v 0.034839 0.000797 -0.078593
v 0.021074 0.000797 -0.078593
v 0.007308 0.000797 -0.078593
v 0.007308 0.008936 -0.078593
v 0.034839 -0.010772 -0.078593
v 0.034839 -0.019624 -0.078593
v 0.021120 -0.029761 -0.078593
v 0.007308 -0.018910 -0.078593
v 0.007308 -0.010772 -0.078593
v 0.021074 -0.010772 -0.078593
v 0.035345 0.009866 -0.069351
v 0.021110 0.020384 -0.069351
v 0.042053 -0.004987 -0.069351
v 0.035345 0.000341 -0.069351
v 0.024589 -0.004987 -0.069351
v 0.021074 0.000341 -0.069351
v 0.006803 0.000341 -0.069351
v 0.006803 0.009143 -0.069351
v 0.042053 -0.022613 -0.069351
v 0.035345 -0.019840 -0.069351
v 0.035345 -0.010315 -0.069351
v 0.024589 -0.038587 -0.069351
v 0.021110 -0.030358 -0.069351
v 0.006803 -0.019117 -0.069351
v 0.006803 -0.010315 -0.069351
v 0.021074 -0.010315 -0.069351
v 0.040440 0.012044 -0.094033
v 0.021009 0.026401 -0.094033
v 0.040440 -0.004257 -0.094033
v 0.021074 -0.004257 -0.094033
v 0.001708 -0.004257 -0.094033
v 0.001708 0.011237 -0.094033
v 0.040440 -0.022019 -0.094033
v 0.040440 -0.005717 -0.094033
v 0.021009 -0.036375 -0.094033
v 0.001708 -0.021211 -0.094033
v 0.001708 -0.005717 -0.094033
v 0.021074 -0.005717 -0.094033
v 0.036505 0.010362 -0.094033
v 0.021087 0.021754 -0.094033
v 0.036505 -0.000706 -0.094033
v 0.021074 -0.000706 -0.094033
v 0.005642 -0.000706 -0.094033
v 0.005642 0.009620 -0.094033
v 0.036505 -0.020336 -0.094033
v 0.036505 -0.009268 -0.094033
v 0.021087 -0.031729 -0.094033
v 0.005642 -0.019594 -0.094033
v 0.005642 -0.009268 -0.094033
v 0.021074 -0.009268 -0.094033
v 0.021691 0.038587 0.032690
v -0.017586 -0.026310 0.111051
v 0.015800 -0.026310 0.111051
v -0.017761 0.000764 0.117600
v 0.015975 0.000764 0.117600
v -0.017440 -0.012773 0.129958
v 0.015655 -0.012773 0.129958
v -0.022155 -0.010582 0.117395
v 0.020043 -0.010734 0.118267
v -0.016263 0.001909 0.116397
v 0.014478 0.001909 0.116397
v 0.020002 0.038298 0.034326
v -0.021788 0.038298 0.034326
v -0.052874 0.005539 0.034391
v -0.022221 -0.008863 0.115994
v -0.019282 0.000286 0.116292
v -0.024654 0.036704 0.034301
v 0.020151 -0.008995 0.116743
v 0.051088 0.005540 0.034392
v 0.022867 0.036703 0.034301
v 0.017491 0.000240 0.116367
v -0.042349 -0.003446 0.012803
v -0.042111 -0.001647 -0.061336
v -0.042111 -0.004987 -0.061336
v -0.042111 -0.008327 -0.061336
v -0.042349 -0.006528 0.012803
v 0.042349 -0.006528 0.011901
v 0.042111 -0.008327 -0.062238
v 0.042111 -0.004987 -0.062238
v 0.042111 -0.001647 -0.062238
v 0.042349 -0.003446 0.011901
v -0.126842 -0.003446 -0.074998
v -0.126605 -0.001647 -0.085151
v -0.126605 -0.004987 -0.085151
v -0.126605 -0.008327 -0.085151
v -0.126842 -0.006528 -0.074998
v 0.126842 -0.006528 -0.075900
v 0.126605 -0.008327 -0.086053
v 0.126605 -0.004987 -0.086053
v 0.126605 -0.001647 -0.086053
v 0.126842 -0.003446 -0.075900
v -0.112056 -0.003446 -0.059633
v -0.111818 -0.001647 -0.080983
v -0.111818 -0.004987 -0.080983
v -0.111818 -0.008327 -0.080983
v -0.112056 -0.006528 -0.059633
v 0.112056 -0.006528 -0.060535
v 0.111818 -0.008327 -0.081885
v 0.111818 -0.004987 -0.081885
v 0.111818 -0.001647 -0.081885
v 0.112056 -0.003446 -0.060535
vt 0.428001 0.647861
vt 0.452869 0.620672
vt 0.457187 0.630962
vt 0.440812 0.653124
vt 0.480312 0.620672
vt 0.472016 0.630962
vt 0.480312 0.647861
vt 0.472016 0.653180
vt 0.480312 0.686143
vt 0.472016 0.675399
vt 0.428001 0.686143
vt 0.458312 0.675399
vt 0.507754 0.620672
vt 0.503436 0.630962
vt 0.488607 0.630962
vt 0.536788 0.647861
vt 0.519812 0.653124
vt 0.536788 0.686143
vt 0.502311 0.675399
vt 0.488607 0.675399
vt 0.488607 0.653180
vt 0.280449 0.109787
vt 0.146772 0.109787
vt 0.146772 0.080753
vt 0.278977 0.078176
vt 0.109522 0.169801
vt 0.078091 0.166128
vt 0.089884 0.034424
vt 0.118847 0.036450
vt 0.536788 0.724425
vt 0.507754 0.751615
vt 0.503437 0.741172
vt 0.519812 0.719009
vt 0.480312 0.751615
vt 0.488608 0.741172
vt 0.480312 0.724425
vt 0.488608 0.718953
vt 0.488608 0.696735
vt 0.502311 0.696735
vt 0.452870 0.751615
vt 0.457187 0.741172
vt 0.472016 0.741172
vt 0.428001 0.724425
vt 0.440812 0.719009
vt 0.458312 0.696735
vt 0.472016 0.696735
vt 0.472016 0.718953
vt 0.454740 0.945458
vt 0.591715 0.945458
vt 0.587715 0.983740
vt 0.454037 0.983740
vt 0.157846 0.058512
vt 0.273272 0.055710
vt 0.146772 0.053311
vt 0.157846 0.053311
vt 0.146772 0.025869
vt 0.157846 0.048111
vt 0.278977 0.028446
vt 0.273272 0.050912
vt 0.028482 0.162659
vt 0.035133 0.030596
vt 0.056548 0.043194
vt 0.051291 0.158535
vt 0.062509 0.032510
vt 0.061736 0.043557
vt 0.066924 0.043920
vt 0.056078 0.158870
vt 0.237135 0.735233
vt 0.336452 0.788618
vt 0.313628 0.812787
vt 0.157220 0.818521
vt 0.110354 0.006200
vt 0.218881 0.006200
vt 0.218881 0.011401
vt 0.110354 0.011401
vt 0.110354 0.001000
vt 0.218881 0.001000
vt 0.568599 0.156676
vt 0.649047 0.073903
vt 0.648774 0.230415
vt 0.625417 0.254069
vt 0.160497 0.055710
vt 0.160497 0.050912
vt 0.271752 0.575611
vt 0.218366 0.674928
vt 0.194198 0.652104
vt 0.188464 0.495696
vt 0.804293 0.011408
vt 0.695766 0.011408
vt 0.695766 0.006207
vt 0.804293 0.006207
vt 0.804293 0.016608
vt 0.695766 0.016608
vt 0.901867 0.604506
vt 0.982315 0.521733
vt 0.982043 0.678245
vt 0.958686 0.701899
vt 0.059158 0.046035
vt 0.063945 0.046369
vt 0.589119 0.907176
vt 0.455442 0.907176
vt 0.745101 0.917806
vt 0.745101 0.970329
vt 0.743229 0.967998
vt 0.743229 0.920137
vt 0.612905 0.979228
vt 0.615452 0.976600
vt 0.615452 0.911536
vt 0.612905 0.944620
vt 0.612905 0.908907
vt 0.304235 0.067599
vt 0.436112 0.044600
vt 0.433931 0.047277
vt 0.306883 0.069700
vt 0.436431 0.062265
vt 0.434394 0.061522
vt 0.615413 0.907075
vt 0.743065 0.915438
vt 0.304235 0.121151
vt 0.306742 0.118220
vt 0.033207 0.323276
vt 0.065679 0.191988
vt 0.067591 0.194776
vt 0.036073 0.321099
vt 0.119101 0.195724
vt 0.116002 0.198020
vt 0.743181 0.972689
vt 0.615412 0.981059
vt 0.051137 0.323489
vt 0.050458 0.321517
vt 0.703989 0.616067
vt 0.703989 0.594635
vt 0.716659 0.594635
vt 0.733554 0.616139
vt 0.717771 0.637498
vt 0.703989 0.637498
vt 0.407774 0.478395
vt 0.386342 0.478395
vt 0.386342 0.464612
vt 0.407702 0.448830
vt 0.429205 0.465724
vt 0.429205 0.478395
vt 0.136575 0.055710
vt 0.120769 0.058512
vt 0.120769 0.053311
vt 0.120768 0.048111
vt 0.136575 0.050912
vt 0.975372 0.879359
vt 0.953941 0.879359
vt 0.953941 0.866688
vt 0.975444 0.849794
vt 0.996804 0.865576
vt 0.996804 0.879359
vt 0.818550 0.532750
vt 0.818550 0.511318
vt 0.832333 0.511318
vt 0.848115 0.532678
vt 0.831220 0.554181
vt 0.818550 0.554181
vt 0.060827 0.022171
vt 0.059135 0.006207
vt 0.064323 0.006570
vt 0.069510 0.006933
vt 0.065613 0.022506
vt 0.357519 0.799943
vt 0.346805 0.811570
vt 0.241902 0.006200
vt 0.241902 0.011401
vt 0.241902 0.001000
vt 0.648717 0.263615
vt 0.637470 0.274728
vt 0.207042 0.695995
vt 0.195414 0.685281
vt 0.672745 0.011408
vt 0.672745 0.006207
vt 0.672745 0.016608
vt 0.981985 0.711445
vt 0.970739 0.722558
vt 0.276680 0.954100
vt 0.275208 0.981843
vt 0.143003 0.981290
vt 0.143003 0.954100
vt 0.760120 0.784076
vt 0.737958 0.784076
vt 0.730026 0.745648
vt 0.760277 0.745648
vt 0.621831 0.513295
vt 0.607002 0.513295
vt 0.599842 0.474867
vt 0.625222 0.474867
vt 0.651916 0.719907
vt 0.651916 0.697688
vt 0.690344 0.697688
vt 0.690344 0.727839
vt 0.651916 0.675470
vt 0.690344 0.667538
vt 0.351233 0.768454
vt 0.337529 0.768454
vt 0.334269 0.730026
vt 0.358392 0.730026
vt 0.782395 0.784076
vt 0.790327 0.745648
vt 0.825710 0.881038
vt 0.840539 0.881038
vt 0.843930 0.919466
vt 0.818550 0.919466
vt 0.466429 0.503628
vt 0.466429 0.525790
vt 0.428001 0.525947
vt 0.428001 0.495696
vt 0.466429 0.548065
vt 0.428001 0.555997
vt 0.629139 0.474867
vt 0.642843 0.474867
vt 0.650002 0.513295
vt 0.625879 0.513295
vt 0.732751 0.703989
vt 0.754969 0.703989
vt 0.754969 0.742417
vt 0.724818 0.742417
vt 0.777187 0.703989
vt 0.785120 0.742417
vt 0.395563 0.485281
vt 0.425814 0.507634
vt 0.419689 0.510253
vt 0.395684 0.492516
vt 0.425814 0.533014
vt 0.419689 0.527485
vt 0.395664 0.533014
vt 0.395664 0.527485
vt 0.365513 0.533014
vt 0.371638 0.527485
vt 0.365513 0.508890
vt 0.371638 0.511408
vt 0.563391 0.579013
vt 0.588771 0.579013
vt 0.586152 0.585139
vt 0.568920 0.585139
vt 0.611124 0.609265
vt 0.603889 0.609143
vt 0.587514 0.639315
vt 0.584997 0.633189
vt 0.563391 0.639315
vt 0.568920 0.633189
vt 0.563391 0.609164
vt 0.568920 0.609164
vt 0.693574 0.701957
vt 0.693574 0.677952
vt 0.717614 0.680546
vt 0.717614 0.701905
vt 0.669148 0.097942
vt 0.651916 0.097942
vt 0.654256 0.073903
vt 0.668039 0.073903
vt 0.787306 0.819734
vt 0.787306 0.795709
vt 0.811346 0.795709
vt 0.811346 0.817141
vt 0.787306 0.771684
vt 0.811346 0.774278
vt 0.370720 0.865871
vt 0.370720 0.849794
vt 0.394760 0.850860
vt 0.394760 0.863530
vt 0.693574 0.726003
vt 0.717614 0.723409
vt 0.504114 0.886245
vt 0.504114 0.903477
vt 0.480074 0.902369
vt 0.480074 0.888586
vt 0.750855 0.923881
vt 0.750855 0.899876
vt 0.774895 0.899928
vt 0.774895 0.921287
vt 0.750855 0.875831
vt 0.774895 0.878424
vt 0.344683 0.271781
vt 0.360760 0.271781
vt 0.358420 0.295821
vt 0.345749 0.295821
vt 0.422793 0.996784
vt 0.422793 0.972758
vt 0.446833 0.972758
vt 0.446833 0.994190
vt 0.422793 0.948733
vt 0.446833 0.951327
vt 0.304235 0.006106
vt 0.280449 0.001000
vt 0.300466 0.958013
vt 0.280955 0.915818
vt 0.300466 0.916876
vt 0.142300 0.915818
vt 0.004337 0.187698
vt 0.001000 0.162213
vt 0.552976 0.541412
vt 0.552976 0.519250
vt 0.591405 0.511318
vt 0.591405 0.541569
vt 0.686551 0.459245
vt 0.701380 0.459245
vt 0.708540 0.497673
vt 0.683160 0.497673
vt 0.469659 0.553272
vt 0.469659 0.531054
vt 0.508088 0.531054
vt 0.508088 0.561205
vt 0.469659 0.508836
vt 0.508088 0.500903
vt 0.914259 0.971515
vt 0.914259 0.985219
vt 0.875831 0.988479
vt 0.875831 0.964355
vt 0.552976 0.563687
vt 0.591405 0.571619
vt 0.643453 0.344683
vt 0.658282 0.344683
vt 0.661674 0.383112
vt 0.636294 0.383112
vt 0.549746 0.508836
vt 0.549746 0.530998
vt 0.511318 0.531155
vt 0.511318 0.500903
vt 0.549746 0.553272
vt 0.511318 0.561205
vt 0.889505 0.474867
vt 0.903209 0.474867
vt 0.910369 0.513295
vt 0.886245 0.513295
vt 0.638271 0.529665
vt 0.638271 0.551883
vt 0.599842 0.551883
vt 0.599842 0.521733
vt 0.638271 0.574102
vt 0.599842 0.582034
vt 0.610257 0.624887
vt 0.632609 0.594635
vt 0.635228 0.600761
vt 0.617492 0.624765
vt 0.657989 0.594635
vt 0.652461 0.600761
vt 0.657989 0.624786
vt 0.652461 0.624786
vt 0.657989 0.654937
vt 0.652460 0.648811
vt 0.633866 0.654937
vt 0.636384 0.648811
vt 0.521733 0.334269
vt 0.547113 0.334269
vt 0.544493 0.340394
vt 0.527261 0.340394
vt 0.569465 0.364520
vt 0.562230 0.364399
vt 0.545856 0.394570
vt 0.543338 0.388445
vt 0.521733 0.394570
vt 0.527261 0.388445
vt 0.521733 0.364420
vt 0.527261 0.364420
vt 0.951950 0.969563
vt 0.975954 0.969563
vt 0.973361 0.993602
vt 0.952001 0.993602
vt 0.683160 0.997209
vt 0.683160 0.979977
vt 0.707199 0.982318
vt 0.707199 0.996100
vt 0.579013 0.375927
vt 0.603038 0.375927
vt 0.603038 0.399967
vt 0.581607 0.399967
vt 0.627063 0.375927
vt 0.624470 0.399967
vt 0.750855 0.126431
vt 0.750855 0.110354
vt 0.774895 0.111420
vt 0.774895 0.124090
vt 0.927904 0.969563
vt 0.930497 0.993602
vt 0.518135 0.842590
vt 0.500903 0.842590
vt 0.502012 0.818550
vt 0.515795 0.818550
vt 0.787306 0.871808
vt 0.787306 0.847803
vt 0.811346 0.847854
vt 0.811346 0.869214
vt 0.787306 0.823757
vt 0.811346 0.826351
vt 0.819005 0.592638
vt 0.802928 0.592638
vt 0.805269 0.568599
vt 0.817939 0.568599
vt 0.589428 0.339476
vt 0.613453 0.339476
vt 0.613453 0.363516
vt 0.592021 0.363516
vt 0.637478 0.339476
vt 0.634885 0.363516
vt 0.275275 0.877536
vt 0.141598 0.877536
vt 0.141598 0.850347
vt 0.273803 0.849794
vt 0.300466 0.876404
vt 0.422465 0.943197
vt 0.422465 0.891219
vt 0.451901 0.891446
vt 0.451901 0.942971
vt 0.298316 0.823757
vt 0.349841 0.823757
vt 0.350340 0.844833
vt 0.297818 0.844833
vt 0.009799 0.310378
vt 0.028770 0.341212
vt 0.426235 0.020113
vt 0.455671 0.041189
vn 0.0000 0.0000 -1.0000
vn -0.0116 -0.0385 -0.9992
vn -0.0657 0.0000 -0.9978
vn -0.0652 0.0000 -0.9979
vn -0.0157 0.0143 -0.9998
vn -0.0151 -0.0120 -0.9998
vn -0.0116 0.0385 -0.9992
vn -0.7374 0.6609 -0.1397
vn -0.7412 0.6713 0.0050
vn -0.7370 0.6604 -0.1438
vn 0.7422 0.6641 -0.0904
vn 0.7421 0.6641 -0.0908
vn 0.7412 0.6713 0.0050
vn -0.0116 -0.0387 -0.9992
vn -0.0662 0.0000 -0.9978
vn -0.0151 0.0121 -0.9998
vn -0.0158 -0.0144 -0.9998
vn -0.0116 0.0387 -0.9992
vn 0.0000 1.0000 0.0000
vn -0.9999 -0.0001 -0.0131
vn -1.0000 -0.0001 -0.0074
vn -1.0000 -0.0004 -0.0041
vn -1.0000 -0.0004 -0.0050
vn -1.0000 0.0000 -0.0082
vn -1.0000 0.0001 -0.0075
vn -1.0000 0.0004 -0.0041
vn -0.9999 0.0001 -0.0131
vn -1.0000 0.0004 -0.0050
vn 0.9999 0.0001 -0.0131
vn 1.0000 0.0001 -0.0075
vn 1.0000 0.0004 -0.0041
vn 1.0000 0.0004 -0.0050
vn 1.0000 0.0000 -0.0082
vn 1.0000 -0.0001 -0.0075
vn 1.0000 -0.0004 -0.0041
vn 0.9999 -0.0001 -0.0131
vn 1.0000 -0.0004 -0.0050
vn -0.0248 0.9990 0.0375
vn 0.2713 0.0000 -0.9625
vn -0.0248 -0.9990 0.0375
vn -0.7205 0.0000 0.6934
vn 0.0248 -0.9990 0.0375
vn -0.2713 0.0000 -0.9625
vn 0.0248 0.9990 0.0375
vn 0.7205 0.0000 0.6934
vn 0.0000 0.7240 0.6898
vn 0.2884 0.8676 0.4050
vn 0.0000 0.9848 0.1740
vn -0.2884 0.8676 0.4050
vn -0.8895 0.2556 0.3788
vn -0.7750 0.2632 0.5745
vn -0.5909 0.7218 0.3603
vn -0.7424 0.6647 0.0842
vn 0.8892 0.2563 0.3789
vn 0.7423 0.6647 0.0843
vn 0.5934 0.7201 0.3598
vn 0.7687 0.2784 0.5758
vn 0.0000 0.9142 0.4053
vn -0.7443 0.5735 0.3421
vn 0.7446 0.5731 0.3422
vn -0.9997 0.0000 -0.0234
vn 0.9997 0.0000 -0.0234
vn -0.0740 0.9909 0.1121
vn -0.0740 -0.9909 0.1121
vn 0.0740 -0.9909 0.1121
vn 0.0740 0.9909 0.1121
vn -0.8149 -0.0000 -0.5797
vn -0.7237 0.6432 -0.2499
vn -0.7345 -0.6718 0.0962
vn -0.7462 -0.6542 0.1235
vn -0.6897 -0.7241 0.0056
vn -0.5834 -0.7896 0.1901
vn -0.9794 0.0000 0.2022
vn 0.0000 0.9831 0.1832
vn 0.9794 -0.0000 0.2022
vn 0.6065 -0.7719 0.1907
vn -0.5834 0.7896 0.1901
vn 0.6065 0.7719 0.1907
vn 0.0000 -0.9831 0.1832
vn 0.5912 0.8002 -0.1007
vn 0.9942 0.0000 -0.1073
vn 0.0000 -0.9953 -0.0969
vn -0.9942 0.0000 -0.1073
vn -0.6146 0.7823 -0.1010
vn 0.5912 -0.8002 -0.1007
vn -0.6146 -0.7823 -0.1010
vn 0.0000 0.9953 -0.0969
vn -0.8067 -0.5571 0.1972
vn -0.8226 -0.5335 0.1966
vn -0.0048 0.8947 -0.4467
vn 0.0158 0.8923 -0.4512
vn -0.0038 0.8946 -0.4469
vn -0.0123 -0.9735 0.2282
vn 0.0025 -0.9743 0.2254
vn 0.0014 -0.9742 0.2256
vn 0.0000 -1.0000 0.0000
vn 0.8689 -0.0000 -0.4950
vn 0.8015 -0.5506 0.2332
vn 0.7329 -0.6674 0.1325
vn 0.7412 -0.6510 0.1637
vn 0.8179 -0.5321 0.2190
vn 0.5834 0.7896 0.1901
vn -0.6065 0.7719 0.1907
vn 0.5834 -0.7896 0.1901
vn -0.6065 -0.7719 0.1907
vn -0.5912 -0.8002 -0.1007
vn 0.6146 -0.7823 -0.1010
vn -0.5912 0.8002 -0.1007
vn 0.6146 0.7823 -0.1010
vn 0.6897 -0.7241 0.0056
vn 0.7384 0.6547 -0.1620
vn 0.0161 -0.9748 0.2227
vn -0.0243 0.8966 -0.4422
vn 0.0000 -0.9935 0.1141
vn 0.0000 -0.8131 0.5822
vn 0.0000 -0.1006 0.9949
vn 0.0000 0.6742 0.7385
vn 0.8548 -0.4735 0.2123
vn 0.9340 -0.1798 0.3087
vn 0.9379 -0.0505 0.3432
vn 0.8642 0.3279 0.3816
vn -0.8557 -0.4712 0.2137
vn -0.9329 -0.1901 0.3059
vn -0.9379 -0.0505 0.3432
vn -0.8642 0.3279 0.3816
usemtl Material_#25
s 1
f 10/1/1 5/2/1 16/3/1 15/4/1
f 5/2/1 13/5/1 17/6/1 16/3/1
f 13/5/1 14/7/1 18/8/1 17/6/1
f 14/7/2 12/9/2 19/10/2 18/8/2
f 12/9/3 2/11/3 20/12/4 19/10/4
f 2/11/5 10/1/5 15/4/5 20/12/5
f 13/5/1 6/13/1 22/14/1 21/15/1
f 6/13/1 9/16/1 23/17/1 22/14/1
f 9/16/6 3/18/6 24/19/6 23/17/6
f 3/18/3 12/9/3 25/20/4 24/19/4
f 12/9/7 14/7/7 26/21/7 25/20/7
f 14/7/1 13/5/1 21/15/1 26/21/1
f 65/22/8 9/23/9 6/24/9 63/25/10
f 76/26/11 72/27/12 77/28/13 75/29/13
f 75/30/1 77/31/1 90/32/1 91/33/1
f 77/31/1 92/34/1 93/35/1 90/32/1
f 92/34/1 94/36/1 95/37/1 93/35/1
f 94/36/14 12/9/14 96/38/14 95/37/14
f 12/9/3 3/18/3 97/39/15 96/38/15
f 3/18/16 75/30/16 91/33/16 97/39/16
f 92/34/1 98/40/1 99/41/1 100/42/1
f 98/40/1 101/43/1 102/44/1 99/41/1
f 101/43/17 2/11/17 103/45/17 102/44/17
f 2/11/3 12/9/3 104/46/15 103/45/15
f 12/9/18 94/36/18 105/47/18 104/46/18
f 94/36/1 92/34/1 100/42/1 105/47/1
f 3/48/19 67/49/19 76/50/19 75/51/19
f 63/25/20 6/24/21 152/52/22 151/53/23
f 6/24/21 13/54/24 153/55/24 152/52/22
f 13/54/24 5/56/25 154/57/26 153/55/24
f 5/56/25 64/58/27 155/59/28 154/57/26
f 64/58/27 63/25/20 151/53/23 155/59/28
f 71/60/29 98/61/30 157/62/31 156/63/32
f 98/61/30 92/64/33 158/65/33 157/62/31
f 92/64/33 77/28/34 159/66/35 158/65/33
f 77/28/34 72/27/36 160/67/37 159/66/35
f 72/27/36 71/60/29 156/63/32 160/67/37
f 152/68/38 172/69/38 171/70/38 151/71/38
f 153/72/39 173/73/39 172/74/39 152/75/39
f 154/76/39 174/77/39 173/73/39 153/72/39
f 154/78/40 155/79/40 175/80/40 174/81/40
f 151/53/41 171/82/41 175/83/41 155/59/41
f 157/84/42 177/85/42 176/86/42 156/87/42
f 158/88/43 178/89/43 177/90/43 157/91/43
f 159/92/43 179/93/43 178/89/43 158/88/43
f 159/94/44 160/95/44 180/96/44 179/97/44
f 156/63/45 176/98/45 180/99/45 160/67/45
usemtl Material_#26
f 65/100/19 67/49/19 3/48/19 9/101/19
usemtl 08_-_Default
f 133/102/46 134/103/46 140/104/46 139/105/46
f 134/103/47 130/106/47 141/107/47 140/104/47
f 142/108/48 141/107/48 130/106/48 1/109/48 8/110/48
f 8/110/49 133/102/49 139/105/49 142/108/49
f 4/111/50 137/112/50 144/113/50 143/114/50
f 137/112/51 133/115/51 145/116/51 144/113/51
f 133/102/52 8/110/52 146/117/52 145/118/52
f 8/119/53 4/111/53 143/114/53 146/120/53
f 138/121/54 70/122/54 148/123/54 147/124/54
f 70/122/55 130/125/55 149/126/55 148/123/55
f 130/106/56 134/103/56 150/127/56 149/128/56
f 134/129/57 138/121/57 147/124/57 150/130/57
usemtl 01_-_Default
f 139/105/58 140/104/58 141/107/58 142/108/58
f 143/114/59 144/113/59 145/116/59 146/120/59
f 148/123/60 149/126/60 150/130/60 147/124/60
usemtl 02_-_Default
f 54/131/1 55/132/1 56/133/1 51/134/1 52/135/1 53/136/1
f 62/137/1 57/138/1 58/139/1 59/140/1 60/141/1 61/142/1
f 161/143/61 162/144/61 163/145/61 164/146/61 165/147/61
f 81/148/1 82/149/1 83/150/1 78/151/1 79/152/1 80/153/1
f 89/154/1 84/155/1 85/156/1 86/157/1 87/158/1 88/159/1
f 166/160/62 167/161/62 168/162/62 169/163/62 170/164/62
f 172/69/63 162/165/63 161/166/63 171/70/63
f 163/167/39 162/168/39 172/74/39 173/73/39
f 164/169/39 163/167/39 173/73/39 174/77/39
f 165/170/64 164/171/64 174/81/64 175/80/64
f 161/143/41 165/147/41 175/83/41 171/82/41
f 177/85/65 167/172/65 166/173/65 176/86/65
f 168/174/43 167/175/43 177/90/43 178/89/43
f 169/176/43 168/174/43 178/89/43 179/93/43
f 170/177/66 169/178/66 179/97/66 180/96/66
f 166/160/45 170/164/45 180/99/45 176/98/45
usemtl 03_-_Default
f 4/111/67 63/25/67 64/58/67
f 8/119/68 65/22/8 63/25/10 4/111/68
f 66/179/69 64/180/70 5/181/71 10/182/71
f 15/183/72 16/184/72 28/185/72 27/186/72
f 16/187/73 17/188/73 29/189/73 28/190/73
f 17/191/74 18/192/74 30/193/74 29/194/74
f 18/192/74 19/195/74 31/196/74 30/193/74
f 19/197/75 20/198/75 32/199/75 31/200/75
f 20/201/76 15/183/76 27/186/76 32/202/76
f 21/203/73 22/204/73 34/205/73 33/206/73
f 22/207/77 23/208/77 35/209/77 34/210/77
f 23/208/78 24/211/78 36/212/78 35/209/78
f 24/213/75 25/214/75 37/215/75 36/216/75
f 25/217/79 26/218/79 38/219/79 37/220/79
f 26/218/79 21/221/79 33/222/79 38/219/79
f 27/223/1 28/224/1 40/225/1 39/226/1
f 28/224/1 29/227/1 41/228/1 40/225/1
f 29/227/1 30/229/1 42/230/1 41/228/1
f 30/229/1 31/231/1 43/232/1 42/230/1
f 31/231/1 32/233/1 44/234/1 43/232/1
f 32/233/1 27/223/1 39/226/1 44/234/1
f 33/235/1 34/236/1 46/237/1 45/238/1
f 34/236/1 35/239/1 47/240/1 46/237/1
f 35/239/1 36/241/1 48/242/1 47/240/1
f 36/241/1 37/243/1 49/244/1 48/242/1
f 37/243/1 38/245/1 50/246/1 49/244/1
f 38/245/1 33/235/1 45/238/1 50/246/1
f 39/247/80 40/248/80 52/249/80 51/250/80
f 40/251/81 41/252/81 53/253/81 52/254/81
f 41/255/82 42/256/82 54/257/82 53/258/82
f 42/256/82 43/259/82 55/260/82 54/257/82
f 43/261/83 44/262/83 56/263/83 55/264/83
f 44/265/84 39/247/84 51/250/84 56/266/84
f 45/267/81 46/268/81 58/269/81 57/270/81
f 46/271/85 47/272/85 59/273/85 58/274/85
f 47/272/86 48/275/86 60/276/86 59/273/86
f 48/277/83 49/278/83 61/279/83 60/280/83
f 49/281/87 50/282/87 62/283/87 61/284/87
f 50/282/87 45/285/87 57/286/87 62/283/87
f 11/287/88 4/111/89 64/58/70 66/288/69
f 67/49/90 65/100/91 8/110/91 1/109/92
f 11/289/93 66/179/93 68/290/94 69/291/95
f 2/292/96 68/290/96 66/179/96 10/182/96
f 70/122/97 71/60/97 72/27/97
f 73/293/98 74/294/99 71/60/100 70/122/101
f 91/295/102 90/296/102 106/297/102 107/298/102
f 90/299/75 93/300/75 108/301/75 106/302/75
f 93/303/79 95/304/79 109/305/79 108/306/79
f 95/304/79 96/307/79 110/308/79 109/305/79
f 96/309/73 97/310/73 111/311/73 110/312/73
f 97/313/103 91/295/103 107/298/103 111/314/103
f 100/315/75 99/316/75 112/317/75 113/318/75
f 99/319/104 102/320/104 114/321/104 112/322/104
f 102/320/105 103/323/105 115/324/105 114/321/105
f 103/325/73 104/326/73 116/327/73 115/328/73
f 104/329/74 105/330/74 117/331/74 116/332/74
f 105/330/74 100/333/74 113/334/74 117/331/74
f 107/335/1 106/336/1 118/337/1 119/338/1
f 106/336/1 108/339/1 120/340/1 118/337/1
f 108/339/1 109/341/1 121/342/1 120/340/1
f 109/341/1 110/343/1 122/344/1 121/342/1
f 110/343/1 111/345/1 123/346/1 122/344/1
f 111/345/1 107/335/1 119/338/1 123/346/1
f 113/347/1 112/348/1 124/349/1 125/350/1
f 112/348/1 114/351/1 126/352/1 124/349/1
f 114/351/1 115/353/1 127/354/1 126/352/1
f 115/353/1 116/355/1 128/356/1 127/354/1
f 116/355/1 117/357/1 129/358/1 128/356/1
f 117/357/1 113/347/1 125/350/1 129/358/1
f 119/359/106 118/360/106 79/361/106 78/362/106
f 118/363/83 120/364/83 80/365/83 79/366/83
f 120/367/87 121/368/87 81/369/87 80/370/87
f 121/368/87 122/371/87 82/372/87 81/369/87
f 122/373/81 123/374/81 83/375/81 82/376/81
f 123/377/107 119/359/107 78/362/107 83/378/107
f 125/379/83 124/380/83 85/381/83 84/382/83
f 124/383/108 126/384/108 86/385/108 85/386/108
f 126/384/109 127/387/109 87/388/109 86/385/109
f 127/389/81 128/390/81 88/391/81 87/392/81
f 128/393/82 129/394/82 89/395/82 88/396/82
f 129/394/82 125/397/82 84/398/82 89/395/82
f 74/399/99 101/400/110 98/401/110 71/402/100
f 130/125/111 70/122/111 72/27/12 76/26/11
f 68/290/94 74/399/112 73/403/112 69/291/95
f 130/106/113 76/50/113 67/49/90 1/109/92
f 74/399/96 68/290/96 2/292/96 101/400/96
f 131/404/114 11/289/114 69/291/114 73/403/114 132/405/114
f 131/404/115 132/405/115 136/406/116 135/407/116
f 135/408/116 136/409/116 134/410/117 133/411/117
f 132/412/118 138/121/119 136/413/120
f 136/413/120 138/121/119 134/129/121
f 11/287/88 131/414/122 137/112/123 4/111/89
f 132/412/118 73/293/98 70/122/101 138/121/119
f 131/414/122 135/415/124 137/112/123
f 137/112/123 135/415/124 133/115/125
